<?xml version="1.0" standalone="no"?>
<!DOCTYPE svg PUBLIC "-//W3C//DTD SVG 20010904//EN"
 "http://www.w3.org/TR/2001/REC-SVG-20010904/DTD/svg10.dtd">
<svg version="1.0" xmlns="http://www.w3.org/2000/svg"
 width="512.000000pt" height="512.000000pt" viewBox="0 0 512.000000 512.000000"
 preserveAspectRatio="xMidYMid meet">
<metadata>
Created by potrace 1.14, written by Peter Selinger 2001-2017
</metadata>
<g transform="translate(0.000000,512.000000) scale(0.100000,-0.100000)"
fill="#000000" stroke="none">
<path d="M1116 5113 c-3 -4 -23 -6 -43 -6 -21 0 -42 -2 -48 -6 -5 -3 -19 -6
-30 -7 -44 -5 -176 -43 -192 -56 -7 -6 -13 -8 -13 -5 0 8 -103 -40 -162 -75
-27 -15 -48 -25 -48 -22 0 2 -12 -7 -27 -21 -15 -14 -31 -25 -35 -25 -4 0 -21
-13 -37 -29 -16 -16 -31 -27 -33 -25 -2 2 -40 -34 -84 -79 -96 -100 -136 -147
-127 -147 4 0 -2 -7 -13 -15 -10 -8 -16 -15 -12 -15 4 0 0 -9 -9 -19 -16 -20
-93 -158 -97 -176 -1 -5 -9 -26 -17 -45 -8 -19 -21 -55 -28 -80 -7 -25 -16
-52 -19 -60 -11 -30 -19 -79 -30 -165 -9 -79 -9 -2925 1 -2990 10 -70 15 -99
17 -105 1 -3 2 -9 1 -14 -1 -4 4 -14 10 -22 6 -8 9 -14 6 -14 -5 0 12 -58 30
-100 3 -8 7 -20 8 -26 2 -6 13 -33 26 -60 12 -27 23 -51 23 -54 1 -3 19 -34
40 -70 46 -78 123 -178 186 -240 59 -60 184 -160 199 -160 6 0 11 -4 11 -9 0
-5 10 -13 23 -17 12 -4 24 -9 27 -13 13 -15 133 -70 143 -64 6 4 7 1 2 -7 -6
-10 -4 -12 8 -7 10 3 17 3 17 -2 0 -8 56 -25 73 -22 4 0 7 -3 7 -8 0 -5 8 -8
18 -6 9 1 23 -3 31 -9 10 -8 452 -11 1635 -11 892 0 1632 2 1646 4 14 3 31 9
38 14 6 5 12 6 12 2 0 -4 7 -2 15 5 8 6 18 9 23 6 6 -3 15 1 22 9 7 8 16 12
21 9 5 -3 19 1 31 8 13 7 25 13 28 13 19 2 110 51 110 58 0 6 3 7 6 4 4 -3 18
3 32 13 13 11 31 20 38 20 8 0 14 4 14 8 0 4 12 15 28 24 58 35 210 178 257
242 11 15 28 35 37 43 9 9 15 20 12 25 -3 4 0 8 6 8 6 0 9 4 6 9 -4 5 -3 11 2
13 14 6 90 141 89 158 0 3 6 16 13 30 8 14 15 27 15 30 0 3 6 15 13 28 7 12
10 22 6 22 -3 0 0 10 8 23 8 12 13 32 12 44 -1 13 2 23 5 23 4 0 9 15 11 33 8
50 5 3219 -2 3242 -4 11 -7 28 -7 38 -1 12 -5 16 -13 11 -9 -5 -9 -2 1 9 8 10
9 17 3 17 -6 0 -14 15 -17 33 -4 17 -10 37 -13 42 -4 6 -7 16 -9 24 -1 8 -7
17 -13 21 -7 4 -11 11 -11 16 1 17 -10 44 -20 44 -5 0 -8 3 -7 8 3 14 -14 62
-21 57 -4 -2 -14 12 -21 31 -8 19 -22 42 -32 51 -10 9 -18 22 -18 29 0 7 -12
22 -26 33 -15 12 -23 21 -18 21 5 1 -1 9 -13 19 -12 10 -19 21 -16 25 4 3 -2
6 -12 6 -10 0 -16 3 -13 6 4 3 -14 24 -39 47 -25 23 -60 57 -79 75 -19 19 -34
31 -34 28 0 -4 -12 5 -27 19 -15 14 -33 25 -40 25 -7 0 -13 5 -13 10 0 6 -7
10 -15 10 -8 0 -15 3 -15 8 0 4 -20 16 -45 27 -25 11 -45 23 -45 27 0 5 -3 7
-7 6 -5 -1 -23 6 -40 15 -18 10 -33 15 -33 11 0 -4 -7 -1 -15 6 -8 7 -15 9
-15 4 0 -5 -4 -4 -8 2 -4 6 -34 18 -67 28 -90 26 -108 30 -205 43 -58 8 -2946
14 -2954 6z"/>
</g>
</svg>
